<mxfile host="app.diagrams.net" modified="2024-05-11T08:42:13.564Z" agent="Mozilla/5.0 (Windows NT 10.0; Win64; x64) AppleWebKit/537.36 (KHTML, like Gecko) Chrome/124.0.0.0 Safari/537.36" version="24.0.7" etag="v21RSTbIPXpiVUA-gfs4" type="github">
  <diagram name="第 1 页" id="sKlzZ1wzMn8x6R9TR-rl">
    <mxGraphModel>
      <root>
        <mxCell id="0" />
        <mxCell id="1" parent="0" />
      </root>
    </mxGraphModel>
  </diagram>
</mxfile>
